<svg xmlns="http://www.w3.org/2000/svg" width="78.924" height="78.924" viewBox="0 0 78.924 78.924">
  <path id="ads_click_FILL0_wght400_GRAD0_opsz48" d="M41.345,65.6a22.448,22.448,0,0,1-15.592-7.122A22.288,22.288,0,0,1,19.4,42.5a22.277,22.277,0,0,1,6.737-16.362A22.277,22.277,0,0,1,42.5,19.4a22.288,22.288,0,0,1,15.977,6.352A22.548,22.548,0,0,1,65.6,41.441l-6.064-1.925a17,17,0,0,0-5.775-10.251A16.616,16.616,0,0,0,42.5,25.175,17.253,17.253,0,0,0,25.175,42.5a16.667,16.667,0,0,0,4.091,11.213,16.9,16.9,0,0,0,10.251,5.823ZM42.5,81a37.489,37.489,0,0,1-15.015-3.032A38.439,38.439,0,0,1,7.032,57.514,37.489,37.489,0,0,1,4,42.5,37.489,37.489,0,0,1,7.032,27.485,38.439,38.439,0,0,1,27.485,7.032,37.489,37.489,0,0,1,42.5,4,37.489,37.489,0,0,1,57.515,7.032,38.439,38.439,0,0,1,77.967,27.485,37.489,37.489,0,0,1,81,42.5q0,.866-.048,1.732t-.144,1.732l-5.582-1.732V42.5A31.57,31.57,0,0,0,65.7,19.3,31.57,31.57,0,0,0,42.5,9.775,31.57,31.57,0,0,0,19.3,19.3,31.57,31.57,0,0,0,9.775,42.5,31.57,31.57,0,0,0,19.3,65.7a31.57,31.57,0,0,0,23.2,9.529h1.732l1.732,5.582q-.866.1-1.732.144T42.5,81Zm32.821,1.925L58.862,66.466,54.05,81,42.5,42.5,81,54.049,66.466,58.862,82.924,75.32Z" transform="translate(-4 -4)" fill="#ca673c"/>
</svg>
