<svg xmlns="http://www.w3.org/2000/svg" width="85.084" height="59.771" viewBox="0 0 85.084 59.771">
  <path id="group_FILL0_wght400_GRAD0_opsz48" d="M1.9,68.721V59.673a11.21,11.21,0,0,1,1.732-6.112,10.544,10.544,0,0,1,4.812-4.091A76.31,76.31,0,0,1,21.1,45.043,49.659,49.659,0,0,1,32.7,43.7a49.052,49.052,0,0,1,11.55,1.347,76.961,76.961,0,0,1,12.609,4.427,10.833,10.833,0,0,1,4.861,4.091A10.987,10.987,0,0,1,63.5,59.673v9.047ZM58.109,43.407a95.451,95.451,0,0,1,12.512,2.262,44.1,44.1,0,0,1,9.529,3.417,14.9,14.9,0,0,1,5,4.524,10.552,10.552,0,0,1,1.829,6.064v9.047H69.274V59.673a15.579,15.579,0,0,0-3.08-9.962A22.544,22.544,0,0,0,58.109,43.407ZM32.7,37.825A13.847,13.847,0,0,1,18.262,23.387,13.847,13.847,0,0,1,32.7,8.95,13.847,13.847,0,0,1,47.137,23.387,13.847,13.847,0,0,1,32.7,37.825Zm34.65-14.437A13.847,13.847,0,0,1,52.912,37.825a21.523,21.523,0,0,1-2.358-.144,10.18,10.18,0,0,1-2.358-.529,15.8,15.8,0,0,0,3.513-5.919,24.106,24.106,0,0,0,1.2-7.844,22.4,22.4,0,0,0-1.2-7.652A20.462,20.462,0,0,0,48.2,9.624a20.312,20.312,0,0,1,2.358-.481,16.22,16.22,0,0,1,2.358-.192A13.847,13.847,0,0,1,67.349,23.387ZM7.675,62.946h50.05V59.673a5.5,5.5,0,0,0-.914-2.984,5.032,5.032,0,0,0-2.262-2.021A64.99,64.99,0,0,0,42.9,50.53a46.542,46.542,0,0,0-10.2-1.059A47.2,47.2,0,0,0,22.449,50.53a64.417,64.417,0,0,0-11.694,4.139A4.774,4.774,0,0,0,8.541,56.69a5.725,5.725,0,0,0-.866,2.984ZM32.7,32.05a8.395,8.395,0,0,0,8.662-8.662A8.395,8.395,0,0,0,32.7,14.725a8.395,8.395,0,0,0-8.662,8.662A8.395,8.395,0,0,0,32.7,32.05Zm0-8.662Zm0,26.083Z" transform="translate(-1.9 -8.95)" fill="#ca673c"/>
</svg>
