<svg xmlns="http://www.w3.org/2000/svg" width="84.699" height="61.599" viewBox="0 0 84.699 61.599">
  <path id="payments_FILL0_wght400_GRAD0_opsz48" d="M50.125,44.575a11.5,11.5,0,0,1-11.55-11.55,11.5,11.5,0,0,1,11.55-11.55,11.5,11.5,0,0,1,11.55,11.55,11.5,11.5,0,0,1-11.55,11.55Zm-30.8,13.475a5.751,5.751,0,0,1-5.775-5.775v-38.5A5.751,5.751,0,0,1,19.325,8h61.6A5.751,5.751,0,0,1,86.7,13.775v38.5a5.751,5.751,0,0,1-5.775,5.775Zm9.625-5.775H71.3a9.531,9.531,0,0,1,9.625-9.625V23.4a9.294,9.294,0,0,1-6.834-2.791A9.294,9.294,0,0,1,71.3,13.775H28.95a9.294,9.294,0,0,1-2.791,6.834A9.294,9.294,0,0,1,19.325,23.4V42.65a9.531,9.531,0,0,1,9.625,9.625ZM75.149,69.6H7.775a5.569,5.569,0,0,1-4.091-1.684A5.569,5.569,0,0,1,2,63.824V19.55H7.775V63.824H75.149ZM19.325,52.275h0v-38.5h0v38.5Z" transform="translate(-2 -8)" fill="#ca673c"/>
</svg>
