<svg xmlns="http://www.w3.org/2000/svg" width="76.999" height="61.599" viewBox="0 0 76.999 61.599">
  <path id="confirmation_number_FILL0_wght400_GRAD0_opsz48" d="M9.775,69.6A5.6,5.6,0,0,1,4,63.824V49.1a10.341,10.341,0,0,0,5.919-3.609A10.145,10.145,0,0,0,12.277,38.8a10.333,10.333,0,0,0-2.358-6.737A9.793,9.793,0,0,0,4,28.5V13.775A5.6,5.6,0,0,1,9.775,8H75.224A5.6,5.6,0,0,1,81,13.775V28.5a9.793,9.793,0,0,0-5.919,3.561A10.333,10.333,0,0,0,72.722,38.8a10.145,10.145,0,0,0,2.358,6.689A10.341,10.341,0,0,0,81,49.1V63.824A5.6,5.6,0,0,1,75.224,69.6Zm0-5.775H75.224V53.333a20.557,20.557,0,0,1-5.967-6.256,15.985,15.985,0,0,1,0-16.555,20.557,20.557,0,0,1,5.967-6.256V13.775H9.775V24.266a19.63,19.63,0,0,1,6.016,6.256,16.277,16.277,0,0,1,0,16.555,19.63,19.63,0,0,1-6.016,6.256ZM42.5,57.761a2.961,2.961,0,1,0-2.021-.866A2.77,2.77,0,0,0,42.5,57.761Zm0-16.074a2.961,2.961,0,1,0-2.021-.866A2.77,2.77,0,0,0,42.5,41.687Zm0-16.074A2.859,2.859,0,0,0,44.521,20.7a2.859,2.859,0,1,0-4.042,4.042A2.77,2.77,0,0,0,42.5,25.614Zm0,13.186Z" transform="translate(-4 -8)" fill="#ca673c"/>
</svg>
