<svg id="baseline-account_balance_wallet-24px" xmlns="http://www.w3.org/2000/svg" width="183.212" height="183.212" viewBox="0 0 183.212 183.212">
  <path id="Path_249" data-name="Path 249" d="M0,0H183.212V183.212H0Z" fill="none"/>
  <path id="Path_250" data-name="Path 250" d="M140.409,117.508v7.634a15.313,15.313,0,0,1-15.268,15.268H18.268A15.263,15.263,0,0,1,3,125.141V18.268A15.263,15.263,0,0,1,18.268,3H125.141a15.313,15.313,0,0,1,15.268,15.268V25.9H71.7A15.263,15.263,0,0,0,56.437,41.169V102.24A15.263,15.263,0,0,0,71.7,117.508ZM71.7,102.24h76.338V41.169H71.7ZM102.24,83.155A11.451,11.451,0,1,1,113.691,71.7,11.435,11.435,0,0,1,102.24,83.155Z" transform="translate(19.902 19.902)" fill="#450038"/>
</svg>
