<svg id="baseline-shopping_cart-24px" xmlns="http://www.w3.org/2000/svg" width="44.487" height="44.487" viewBox="0 0 44.487 44.487">
  <path id="Path_95" data-name="Path 95" d="M11.884,31.025a3.628,3.628,0,1,0,3.628,3.628A3.623,3.623,0,0,0,11.884,31.025ZM1,2V5.628H4.628L11.159,19.4,8.71,23.841a3.507,3.507,0,0,0-.454,1.742,3.639,3.639,0,0,0,3.628,3.628H33.653V25.583H12.646a.449.449,0,0,1-.454-.454l.054-.218,1.633-2.957H27.395a3.611,3.611,0,0,0,3.175-1.868L37.064,8.313a1.772,1.772,0,0,0,.218-.871,1.819,1.819,0,0,0-1.814-1.814H8.637L6.932,2H1ZM30.025,31.025a3.628,3.628,0,1,0,3.628,3.628A3.623,3.623,0,0,0,30.025,31.025Z" transform="translate(1.051 2.103)" fill="#fff"/>
  <path id="Path_96" data-name="Path 96" d="M0,0H44.487V44.487H0Z" fill="none"/>
</svg>
