<svg id="block_black_24dp" xmlns="http://www.w3.org/2000/svg" width="30.765" height="30.765" viewBox="0 0 30.765 30.765">
  <path id="Path_364" data-name="Path 364" d="M0,0H30.765V30.765H0Z" fill="none"/>
  <path id="Path_365" data-name="Path 365" d="M14.819,2A12.819,12.819,0,1,0,27.637,14.819,12.823,12.823,0,0,0,14.819,2ZM4.564,14.819A10.252,10.252,0,0,1,14.819,4.564,10.13,10.13,0,0,1,21.1,6.73L6.73,21.1A10.13,10.13,0,0,1,4.564,14.819ZM14.819,25.073a10.13,10.13,0,0,1-6.281-2.166l14.37-14.37a10.13,10.13,0,0,1,2.166,6.281A10.252,10.252,0,0,1,14.819,25.073Z" transform="translate(0.564 0.564)" fill="#ca3c3c" stroke="#ca3c3c" stroke-width="1"/>
</svg>
