<svg xmlns="http://www.w3.org/2000/svg" width="29.749" height="25.362" viewBox="0 0 29.749 25.362">
  <g id="contact_mail_black_24dp" opacity="0.57">
    <path id="Path_396" data-name="Path 396" d="M0,0H29.749V25.362H0Z" fill="none"/>
    <path id="Path_397" data-name="Path 397" d="M0,0H29.749V25.362H0Z" fill="none"/>
    <path id="Path_398" data-name="Path 398" d="M26.03,8.612V7.49L22.312,9.735,18.593,7.49V8.612l3.719,2.245ZM27.27,3H2.479A2.378,2.378,0,0,0,0,5.245V20.959A2.378,2.378,0,0,0,2.479,23.2H27.27a2.366,2.366,0,0,0,2.467-2.245l.012-15.714A2.378,2.378,0,0,0,27.27,3ZM9.916,6.367a3.551,3.551,0,0,1,3.719,3.367A3.551,3.551,0,0,1,9.916,13.1,3.551,3.551,0,0,1,6.2,9.735,3.551,3.551,0,0,1,9.916,6.367Zm7.437,13.469H2.479V18.714c0-2.245,4.958-3.48,7.437-3.48s7.437,1.235,7.437,3.48ZM27.27,13.1H17.353V6.367H27.27Z" transform="translate(0 -0.421)" fill="#fafafa"/>
  </g>
</svg>
