<svg xmlns="http://www.w3.org/2000/svg" width="24" height="24" viewBox="0 0 24 24">
  <g id="inventory_2_black_24dp" opacity="0.74">
    <g id="Group_412" data-name="Group 412">
      <rect id="Rectangle_157" data-name="Rectangle 157" width="24" height="24" fill="none"/>
    </g>
    <g id="Group_413" data-name="Group 413">
      <path id="Path_249" data-name="Path 249" d="M20,2H4A2.074,2.074,0,0,0,2,4V7.01A2.02,2.02,0,0,0,3,8.7V20a2.149,2.149,0,0,0,2,2H19a2.149,2.149,0,0,0,2-2V8.7a2.02,2.02,0,0,0,1-1.69V4A2.074,2.074,0,0,0,20,2ZM15,14H9V12h6Zm5-7H4V4H20Z" fill="#fff"/>
    </g>
  </g>
</svg>
