<svg id="pdf" xmlns="http://www.w3.org/2000/svg" width="22.341" height="22.341" viewBox="0 0 22.341 22.341">
  <path id="Path_244" data-name="Path 244" d="M0,0H22.341V22.341H0Z" fill="none"/>
  <path id="Path_245" data-name="Path 245" d="M18.756,2H7.585A1.867,1.867,0,0,0,5.723,3.862v11.17a1.867,1.867,0,0,0,1.862,1.862h11.17a1.867,1.867,0,0,0,1.862-1.862V3.862A1.867,1.867,0,0,0,18.756,2ZM10.843,8.982a1.394,1.394,0,0,1-1.4,1.4H8.516V12.24H7.12V6.654H9.447a1.394,1.394,0,0,1,1.4,1.4ZM15.5,10.843a1.394,1.394,0,0,1-1.4,1.4H11.774V6.654H14.1a1.394,1.394,0,0,1,1.4,1.4Zm3.723-2.793h-1.4v.931h1.4v1.4h-1.4V12.24h-1.4V6.654h2.793ZM8.516,8.982h.931V8.051H8.516ZM3.862,5.723H2V18.756a1.867,1.867,0,0,0,1.862,1.862H16.894V18.756H3.862Zm9.309,5.12H14.1V8.051H13.17Z" transform="translate(-0.138 -0.138)" fill="#898989"/>
</svg>
